# xmcd
#
# Track frame offsets:
#  150
#  19650
#  35925
#  50101
#  68626
#  84933
#  103233
#  118083
#  142441
#  159391
#  180916
#  197211
#  209350
#
# Disc length: 3042 seconds
#
# Revision: 0
# Processed by: cddbd v1.5.2PL0 Copyright (c) Steve Scherf et al.
# Submitted via: Collectorz.com_Music_Collector 6.11
#
DISCID=c00be00d
DTITLE=Lonstar - Michael Lonstar &...
DYEAR=2011
DGENRE=
TTITLE0=Buddy Jewell - Cowboy's Gone (In Loving Memory of Peter Dula)
TTITLE1=Billy Yates - Radio Friendly
TTITLE2=Georgette Jones - Another Night, Another Dollar
TTITLE3=Billy Ryan - One Inch To The Bottom (And One Bellow The Rim)
TTITLE4=George Hamilton V - Sidewalk Country Picker In Nashville
TTITLE5=Mandy Strobel - Song To Think About
TTITLE6=Billy Yates - Highway Guardian Angel
TTITLE7=Jamie Lee Thurston - Most Likely To Fail
TTITLE8=Dean Miller - Livin' In A Slow Lane
TTITLE9=George Hamilton IV - George Hamilton V - The Lord Is My Shepherd (But Am I His Sheep)
TTITLE10=Bernd Marty Wolf - Twangy Lead Guitar
TTITLE11=Michelle Conner - United States Of Mind
TTITLE12=Michael Lonstar - Coffee Story
EXTD=
EXTT0=
EXTT1=
EXTT2=
EXTT3=
EXTT4=
EXTT5=
EXTT6=
EXTT7=
EXTT8=
EXTT9=
EXTT10=
EXTT11=
EXTT12=
PLAYORDER=
